<?xml version="1.0" encoding="UTF-8"?>
<svg xmlns="http://www.w3.org/2000/svg" viewBox="0 0 272.09 273.24">
  <defs>
    <style>
      .cls-1 {
        fill: #fff;
      }
    </style>
  </defs>
  <g id="fond_logo" data-name="fond logo">
    <circle class="cls-1" cx="135.95" cy="135.58" r="130.45"/>
  </g>
  <g id="ma_typo" data-name="ma typo">
    <g>
      <path d="M153.61,126.54c2.5-9.92,4.81-19.88,6.93-29.88l-2.28.3c1.16,2.12,1.47,4.55,1.87,6.9.43,2.52.86,5.03,1.28,7.55.87,5.11,1.73,10.23,2.6,15.34.27,1.58,2.68.91,2.41-.66-.89-5.28-1.78-10.55-2.68-15.83-.44-2.6-.88-5.19-1.33-7.79-.4-2.35-.85-4.65-2-6.77-.5-.91-2.06-.76-2.28.3-2.12,10-4.43,19.96-6.93,29.88-.39,1.56,2.02,2.23,2.41.66h0Z"/>
      <path d="M154.75,118.73c2.48.44,4.99.75,7.51.9.65.04,1.28-.6,1.25-1.25-.03-.71-.55-1.21-1.25-1.25-2.42-.15-4.53-.4-6.85-.82-.64-.11-1.38.17-1.54.87-.14.61.18,1.41.87,1.54h0Z"/>
    </g>
    <path d="M100.12,102.92c-.24-2.37-2.5-7.57-5.62-5.09-2.56,2.03-2.73,6.62-2.97,9.58-.31,3.93-.06,7.9.7,11.77.59,3.02,1.35,7.18,4.66,8.37,1.66.6,3.45.03,4.74-1.1,1.56-1.37,2.17-3.44,2.69-5.37.41-1.56-2-2.22-2.41-.66s-.78,3.24-2.04,4.27c-1.19.97-2.57.67-3.44-.54-.9-1.26-1.2-3-1.54-4.48-.37-1.65-.64-3.31-.8-4.99-.31-3.31-.25-6.67.25-9.96.21-1.4.44-2.91,1.15-4.16.46-.8.71-.91,1.27-.11.51.72.78,1.61.87,2.47.16,1.59,2.66,1.6,2.5,0h0Z"/>
    <g>
      <path d="M214.03,98.07c.29,9.45.58,18.89.86,28.34.05,1.61,2.55,1.61,2.5,0-.29-9.45-.58-18.89-.86-28.34-.05-1.61-2.55-1.61-2.5,0h0Z"/>
      <path d="M216.44,100.85c1.04-.36,2.09-.66,3.17-.88.26-.05.53-.1.79-.15.12-.02.25-.04.37-.06.08-.01.16-.03.25-.04.14-.02.16-.02.08-.01-.08.01-.06,0,.08,0,.08-.01.16-.02.25-.03.12-.01.25-.03.37-.04.29-.03.58-.05.87-.07.65-.04,1.28-.54,1.25-1.25-.03-.64-.55-1.29-1.25-1.25-2.35.15-4.67.6-6.89,1.38-.62.22-1.09.86-.87,1.54.2.61.88,1.11,1.54.87h0Z"/>
      <path d="M216.57,114.68c.25-.04.51-.07.76-.11.09-.01.08-.01-.04,0,.06,0,.12-.02.18-.02.12-.02.23-.03.35-.04.49-.06.98-.11,1.47-.16.98-.09,1.96-.15,2.95-.19.65-.02,1.28-.56,1.25-1.25s-.55-1.28-1.25-1.25c-2.12.08-4.23.29-6.33.61-.65.1-1.06.95-.87,1.54.23.71.84.98,1.54.87h0Z"/>
      <path d="M216.44,127.6c2.96-.3,5.94-.33,8.91-.1.67.05,1.25-.61,1.25-1.25,0-.72-.57-1.2-1.25-1.25-2.97-.23-5.95-.2-8.91.1-.67.07-1.25.53-1.25,1.25,0,.62.57,1.32,1.25,1.25h0Z"/>
    </g>
    <path d="M176.48,95.33c-3.83.92-5.36,5.1-6.2,8.52-1.08,4.4-1.19,9-.38,13.46.4,2.2,1.03,4.38,1.92,6.43.66,1.54,1.72,3.12,3.43,3.59,1.86.5,3.7-.58,4.69-2.12,1.2-1.83,1.42-4.33,1.6-6.45.12-1.37.14-2.75.04-4.12-.07-.89-.04-2.15-.78-2.8-1.58-1.39-4.68.49-6.12,1.37s-.12,3,1.26,2.16c.85-.52,1.72-.95,2.66-1.26.26-.08.52-.16.79-.23-.42-.53-.55-.52-.38.04-.11.38.09,1.06.11,1.45.1,2.25-.07,4.57-.62,6.76-.41,1.64-1.99,4.06-3.63,2.02-1.11-1.38-1.61-3.45-2.05-5.12-1.06-4-1.28-8.25-.59-12.34.5-2.96,1.39-8.11,4.9-8.95,1.56-.37.9-2.78-.66-2.41h0Z"/>
    <g>
      <path d="M201.26,98.21c3.04.2,6.09.19,9.12-.04.67-.05,1.25-.54,1.25-1.25,0-.64-.57-1.3-1.25-1.25-3.04.23-6.08.24-9.12.04-.67-.04-1.25.61-1.25,1.25,0,.71.57,1.21,1.25,1.25h0Z"/>
      <path d="M203.22,127.02c2.51-.51,5.1-.68,7.71-.51.65.04,1.28-.6,1.25-1.25-.03-.71-.55-1.21-1.25-1.25-2.81-.18-5.62.04-8.38.6-.64.13-1.07.93-.87,1.54.22.68.85,1.01,1.54.87h0Z"/>
      <path d="M204.44,97.99c.58,8.68.98,17.38,1.19,26.08.04,1.61,2.54,1.61,2.5,0-.21-8.7-.61-17.4-1.19-26.08-.11-1.6-2.61-1.61-2.5,0h0Z"/>
    </g>
    <g>
      <path d="M125.8,126.76c-.17-9.31-.32-18.61-.45-27.92l-2.33.63c2.36,4.26,4.45,8.66,6.22,13.2.58,1.48,3,.84,2.41-.66-1.86-4.74-4.01-9.34-6.48-13.79-.6-1.08-2.35-.6-2.33.63.13,9.31.28,18.61.45,27.92.03,1.61,2.53,1.61,2.5,0h0Z"/>
      <path d="M131.86,112.39c1.81-4.77,3.63-9.54,5.44-14.31-.82-.11-1.64-.22-2.46-.33.31,9.87.9,19.72,1.78,29.56.14,1.59,2.64,1.6,2.5,0-.88-9.83-1.47-19.69-1.78-29.56-.05-1.47-1.96-1.62-2.46-.33-1.81,4.77-3.63,9.54-5.44,14.31-.57,1.51,1.84,2.16,2.41.66h0Z"/>
    </g>
    <path d="M188,126.12c-.05-9.8-.09-19.6-.14-29.39l-2.33.63c4.11,9.45,4.58,20.02,8.51,29.54.5,1.21,2.48,1.2,2.46-.33-.14-9.95-.02-19.9.35-29.84.06-1.61-2.44-1.61-2.5,0-.37,9.94-.49,19.89-.35,29.84l2.46-.33c-4.01-9.73-4.55-20.47-8.76-30.14-.51-1.18-2.33-.53-2.33.63.05,9.8.09,19.6.14,29.39,0,1.61,2.51,1.61,2.5,0h0Z"/>
    <path d="M110.26,98.26c-1.71,1.74-2.19,4.38-2.67,6.68-.53,2.57-.85,5.19-.94,7.81s.06,5.4.45,8.06c.34,2.25,1.06,4.58,2.89,6.07,1.63,1.33,3.77,1.63,5.68.72,2.05-.98,3.3-2.95,3.94-5.07,1.46-4.85,1.27-10.48.54-15.43-.36-2.44-.85-5.07-2.25-7.16-1.25-1.87-3.55-3.71-5.92-2.78-1.48.58-.84,3,.66,2.41,1.65-.65,3.03,1.33,3.66,2.61.78,1.58,1.1,3.39,1.37,5.12.64,4.07.67,8.31.01,12.38-.27,1.66-.65,3.48-1.84,4.74-1.27,1.35-3.1,1.64-4.49.32-1.43-1.36-1.71-3.54-1.93-5.4-.24-2.03-.33-4.07-.28-6.11.06-2.32.29-4.64.73-6.92.38-2,.68-4.76,2.16-6.27,1.13-1.15-.64-2.92-1.77-1.77h0Z"/>
    <g>
      <path d="M141.89,97.17c.6,9.65.97,19.31,1.12,28.97.02,1.61,2.52,1.61,2.5,0-.15-9.67-.52-19.33-1.12-28.97-.1-1.6-2.6-1.61-2.5,0h0Z"/>
      <path d="M144.95,98.89c1.31-1.03,3.19-.35,4.16.79,1.3,1.52,1.38,3.7.97,5.57s-1.18,3.51-2.58,4.72-3.27,1.61-4.98.96c-.63-.24-1.37.27-1.54.87-.19.7.24,1.3.87,1.54,4.12,1.56,8.25-1.35,9.86-5.06,1.64-3.78,1.68-9.02-2.17-11.5-1.99-1.28-4.53-1.11-6.36.34-.53.42-.44,1.33,0,1.77.52.52,1.24.42,1.77,0h0Z"/>
    </g>
    <g>
      <path d="M81.64,152.92c-.23-2.36-2.48-7.51-5.59-5.05-2.54,2.01-2.71,6.57-2.94,9.5-.31,3.89-.06,7.83.69,11.66.58,2.98,1.34,7.14,4.63,8.3,1.66.58,3.42.03,4.7-1.1,1.55-1.36,2.15-3.41,2.66-5.32.41-1.56-2-2.22-2.41-.66-.39,1.47-.78,3.21-2.02,4.22-1.17.95-2.53.66-3.39-.53-.9-1.24-1.19-2.97-1.52-4.43-.37-1.63-.63-3.28-.79-4.94-.31-3.28-.24-6.61.25-9.86.21-1.39.43-2.88,1.14-4.12.45-.79.69-.89,1.24-.11.5.71.77,1.59.86,2.44.16,1.59,2.66,1.6,2.5,0h0Z"/>
      <g>
        <path d="M146.19,148.4c.28,9.35.57,18.71.85,28.06.05,1.61,2.55,1.61,2.5,0-.28-9.35-.57-18.71-.85-28.06-.05-1.61-2.55-1.61-2.5,0h0Z"/>
        <path d="M148.59,151.16c1.03-.36,2.07-.66,3.14-.88.26-.05.52-.1.79-.15.12-.02.24-.04.36-.06.08-.01.16-.02.24-.04.14-.02.16-.02.08-.01-.08.01-.06,0,.08,0,.08-.01.16-.02.24-.03.12-.01.24-.03.37-.04.29-.03.57-.05.86-.07.65-.04,1.28-.54,1.25-1.25-.03-.64-.55-1.29-1.25-1.25-2.32.15-4.63.6-6.82,1.37-.62.22-1.09.86-.87,1.54.2.61.88,1.11,1.54.87h0Z"/>
        <path d="M148.72,164.85c.25-.04.5-.07.75-.11.09-.01.08-.01-.04,0,.06,0,.12-.02.17-.02.12-.01.23-.03.35-.04.48-.06.97-.11,1.45-.16.97-.09,1.95-.15,2.92-.19.65-.02,1.28-.56,1.25-1.25s-.55-1.28-1.25-1.25c-2.1.08-4.19.29-6.27.6-.65.1-1.06.95-.87,1.54.23.71.84.98,1.54.87h0Z"/>
        <path d="M148.59,177.66c2.93-.3,5.88-.33,8.82-.1.67.05,1.25-.61,1.25-1.25,0-.72-.57-1.2-1.25-1.25-2.94-.23-5.89-.2-8.82.1-.67.07-1.25.53-1.25,1.25,0,.62.57,1.32,1.25,1.25h0Z"/>
      </g>
      <g>
        <path d="M202.95,149c3.01.2,6.03.18,9.04-.04.67-.05,1.25-.54,1.25-1.25,0-.64-.57-1.3-1.25-1.25-3.01.23-6.03.24-9.04.04-.67-.04-1.25.61-1.25,1.25,0,.71.57,1.21,1.25,1.25h0Z"/>
        <path d="M204.88,177.54c2.48-.51,5.04-.67,7.64-.5.65.04,1.28-.6,1.25-1.25-.03-.71-.55-1.21-1.25-1.25-2.78-.18-5.57.04-8.3.59-.64.13-1.07.93-.87,1.54.22.68.85,1.01,1.54.87h0Z"/>
        <path d="M206.09,148.77c.58,8.6.97,17.21,1.18,25.83.04,1.61,2.54,1.61,2.5,0-.21-8.62-.6-17.23-1.18-25.83-.11-1.6-2.61-1.61-2.5,0h0Z"/>
      </g>
      <path d="M175.26,177.34c-.05-9.7-.09-19.41-.14-29.11-.78.21-1.55.42-2.33.63,4.07,9.36,4.54,19.82,8.42,29.25.5,1.21,2.48,1.19,2.46-.33-.13-9.85-.02-19.71.35-29.55.06-1.61-2.44-1.61-2.5,0-.37,9.85-.48,19.7-.35,29.55l2.46-.33c-3.97-9.63-4.51-20.28-8.68-29.85-.51-1.18-2.33-.53-2.33.63.05,9.7.09,19.41.14,29.11,0,1.61,2.51,1.61,2.5,0h0Z"/>
      <path d="M105.84,176.77c-.05-9.7-.09-19.41-.14-29.11l-2.33.63c4.07,9.36,4.54,19.82,8.42,29.25.5,1.21,2.48,1.19,2.46-.33-.13-9.85-.02-19.71.35-29.55.06-1.61-2.44-1.61-2.5,0-.37,9.85-.48,19.7-.35,29.55l2.46-.33c-3.97-9.63-4.51-20.28-8.68-29.85-.51-1.18-2.33-.53-2.33.63.05,9.7.09,19.41.14,29.11,0,1.61,2.51,1.61,2.5,0h0Z"/>
      <path d="M89.88,149.14c-1.65,1.68-2.12,4.17-2.6,6.4-.54,2.54-.87,5.14-.97,7.73s.03,5.2.38,7.78c.31,2.25.9,4.62,2.64,6.21,3.64,3.31,8.2.48,9.64-3.5.85-2.36,1.04-5.06,1.16-7.54.13-2.68-.02-5.36-.4-8.02-.35-2.47-.82-5.09-2.17-7.24-1.23-1.94-3.55-3.83-5.97-2.91-1.49.57-.84,2.98.66,2.41,1.75-.67,3.18,1.56,3.77,2.92.69,1.57.99,3.33,1.24,5.01.6,4.06.62,8.32-.1,12.37-.29,1.63-.74,3.41-2.02,4.56-1.39,1.25-3.18,1.21-4.42-.22s-1.48-3.51-1.68-5.31c-.22-2.01-.3-4.04-.24-6.06.07-2.22.3-4.43.72-6.62.37-1.96.68-4.72,2.14-6.21,1.13-1.15-.64-2.92-1.77-1.77h0Z"/>
      <g>
        <path d="M132.69,149.4c.45,9.21.85,18.41,1.19,27.63.06,1.6,2.56,1.61,2.5,0-.34-9.21-.74-18.42-1.19-27.63-.08-1.6-2.58-1.61-2.5,0h0Z"/>
        <path d="M133.3,152.37c1.19-1.45,2.56-3.25,4.55-3.53,2.1-.3,3.14,1.7,3.15,3.52.03,3.77-2.54,7.15-5.93,8.59-.62.26-.76,1.18-.45,1.71.38.64,1.09.71,1.71.45,3.44-1.46,6.11-4.71,6.9-8.36.45-2.06.42-4.43-.83-6.21s-3.22-2.5-5.32-2.08c-2.39.48-4.08,2.36-5.55,4.16-.43.52-.51,1.26,0,1.77.44.44,1.34.52,1.77,0h0Z"/>
        <path d="M137.35,162.45c2.36,4.71,4.37,9.58,6.04,14.58.51,1.52,2.92.87,2.41-.66-1.74-5.2-3.84-10.27-6.3-15.18-.72-1.44-2.88-.17-2.16,1.26h0Z"/>
      </g>
      <g>
        <path d="M216.36,148.79c3.7.34,7.41.63,11.09-.04.66-.12,1.04-.93.87-1.54-.19-.7-.87-.99-1.54-.87-3.44.62-6.98.27-10.43-.05-.67-.06-1.25.62-1.25,1.25,0,.73.57,1.19,1.25,1.25h0Z"/>
        <path d="M220.65,148.77c.05,9.25.39,18.5,1.01,27.73.11,1.6,2.61,1.61,2.5,0-.62-9.23-.96-18.48-1.01-27.73,0-1.61-2.51-1.61-2.5,0h0Z"/>
      </g>
      <g>
        <path d="M119.05,149.06c3.7.34,7.41.63,11.09-.04.66-.12,1.04-.93.87-1.54-.19-.7-.87-.99-1.54-.87-3.44.62-6.98.27-10.43-.05-.67-.06-1.25.62-1.25,1.25,0,.73.57,1.19,1.25,1.25h0Z"/>
        <path d="M123.33,149.04c.05,9.25.39,18.5,1.01,27.73.11,1.6,2.61,1.61,2.5,0-.62-9.23-.96-18.48-1.01-27.73,0-1.61-2.51-1.61-2.5,0h0Z"/>
      </g>
      <path d="M187.66,147.39c-.06,4.59.05,9.18.33,13.77.15,2.37.34,4.74.58,7.11.19,1.86.27,3.83,1.05,5.56,1.41,3.13,5.65,4.29,7.59.97.97-1.66,1.23-3.75,1.46-5.63.27-2.17.31-4.36.27-6.55-.1-5.1-.37-10.21-.57-15.31-.06-1.6-2.56-1.61-2.5,0,.18,4.79.41,9.58.54,14.37.07,2.34.08,4.7-.19,7.03-.15,1.32-.38,5.45-2.24,5.65-2.23.24-2.59-3.12-2.76-4.62-.27-2.44-.49-4.89-.66-7.35-.35-4.99-.48-9.99-.41-14.99.02-1.61-2.48-1.61-2.5,0h0Z"/>
      <g>
        <g>
          <path d="M48.11,176.7c2.48-9.82,4.76-19.69,6.87-29.59l-2.28.3c1.15,2.11,1.46,4.52,1.86,6.85.42,2.46.84,4.92,1.26,7.38.86,5.09,1.72,10.17,2.58,15.26.27,1.58,2.68.91,2.41-.66-.89-5.25-1.77-10.5-2.67-15.76-.45-2.63-.89-5.25-1.34-7.88-.39-2.25-.84-4.44-1.94-6.46-.5-.91-2.06-.76-2.28.3-2.1,9.91-4.39,19.77-6.87,29.59-.39,1.56,2.02,2.23,2.41.66h0Z"/>
          <path d="M49.22,168.98c2.46.44,4.95.74,7.44.9.65.04,1.28-.6,1.25-1.25-.03-.71-.55-1.21-1.25-1.25-2.4-.15-4.48-.4-6.78-.81-.64-.11-1.38.17-1.54.87-.14.61.18,1.41.87,1.54h0Z"/>
        </g>
        <path d="M51.95,140.61l3.66,2.66c.25.18.68.2.96.13s.6-.3.75-.57c.15-.29.23-.64.13-.96s-.3-.55-.57-.75l-3.66-2.66c-.25-.18-.68-.2-.96-.13s-.6.3-.75.57c-.15.29-.23.64-.13.96s.3.55.57.75h0Z"/>
      </g>
      <path d="M161.61,170.18c1.95.18,3.9.06,5.82-.28.65-.11,1.07-.94.87-1.54-.22-.69-.85-.99-1.54-.87-.23.04-.47.07-.7.11-.09.01-.07.01.06,0-.05,0-.11.01-.16.02-.11.01-.21.03-.32.04-.45.05-.9.08-1.35.1-.9.04-1.8,0-2.69-.07-.65-.06-1.28.62-1.25,1.25.03.73.55,1.19,1.25,1.25h0Z"/>
    </g>
  </g>
</svg>