<?xml version="1.0" encoding="UTF-8" standalone="no"?>
<svg
   id="ma_typo"
   data-name="ma typo"
   viewBox="0 0 180 84"
   version="1.1"
   sodipodi:docname="menu_projects.svg"
   width="180"
   height="84"
   inkscape:version="1.4.2 (ebf0e940d0, 2025-05-08)"
   xmlns:inkscape="http://www.inkscape.org/namespaces/inkscape"
   xmlns:sodipodi="http://sodipodi.sourceforge.net/DTD/sodipodi-0.dtd"
   xmlns="http://www.w3.org/2000/svg"
   xmlns:svg="http://www.w3.org/2000/svg">
  <sodipodi:namedview
     id="namedview31"
     pagecolor="#101010"
     bordercolor="#000000"
     borderopacity="0.25"
     inkscape:showpageshadow="2"
     inkscape:pageopacity="0.0"
     inkscape:pagecheckerboard="0"
     inkscape:deskcolor="#d1d1d1"
     inkscape:zoom="5.8618346"
     inkscape:cx="72.332304"
     inkscape:cy="64.143741"
     inkscape:window-width="1920"
     inkscape:window-height="1043"
     inkscape:window-x="0"
     inkscape:window-y="0"
     inkscape:window-maximized="1"
     inkscape:current-layer="ma_typo"
     showguides="true">
    <sodipodi:guide
       position="-24.053903,33.845054"
       orientation="0,-1"
       id="guide1"
       inkscape:locked="false" />
    <sodipodi:guide
       position="-8.2478711,51.881482"
       orientation="0,-1"
       id="guide2"
       inkscape:locked="false" />
  </sodipodi:namedview>
  <defs
     id="defs1">
    <style
       id="style1">
      .cls-1 {
        fill: #ffffff;
      }
    </style>
  </defs>
  <path
     class="cls-1"
     d="M 18.059768,47.652106 C 17.99985,34.650892 17.939933,21.649679 17.868032,8.6484665 l -2.79216,0.754909 c 5.464484,12.5578535 6.087627,26.5895775 11.300456,39.2313105 0.599176,1.449905 2.971913,1.437922 2.947946,-0.395429 -0.179753,-13.204919 -0.02397,-26.397855 0.467357,-39.5907905 0.0719,-1.9292125 -2.923978,-1.9292125 -2.995879,0 -0.491325,13.1929355 -0.64711,26.3978545 -0.467358,39.5907905 0.982649,-0.131809 1.965297,-0.263619 2.947945,-0.395428 C 23.955658,34.95046 23.248631,20.703047 17.676295,7.8935575 17.065136,6.4796003 14.884136,7.2584749 14.884136,8.6484665 c 0.05992,13.0012125 0.119835,26.0024255 0.191736,39.0036395 0,1.929212 3.007863,1.929212 2.995879,0 v 0 z"
     id="path2"
     style="stroke-width:1.19831" />
  <path
     class="cls-1"
     d="m 37.520999,32.961334 c -2.792159,1.018528 -4.170264,3.630753 -4.397951,6.47065 -0.215703,2.540329 0.455374,5.524018 2.516539,7.213576 2.061165,1.689559 5.140928,1.965161 7.142176,0 1.821494,-1.797403 2.264884,-4.805057 2.240917,-7.249524 -0.01198,-2.947741 -1.222318,-6.854096 -4.721505,-7.057802 -0.802896,-0.04793 -1.49794,0.718961 -1.49794,1.497836 0,0.85077 0.683061,1.449905 1.49794,1.497835 -0.191736,0 0.299588,0.08388 0.23967,0.05991 -0.107852,-0.04793 0.335539,0.227671 0.227687,0.131809 0.323555,0.263619 0.479341,0.503273 0.671077,0.874736 0.359505,0.671031 0.539258,1.689559 0.587192,2.552312 0.0719,1.677576 -0.131818,3.70265 -0.970665,5.068676 -0.719011,1.174303 -1.965296,1.306113 -3.163648,0.575169 -1.29422,-0.80284 -1.773561,-2.612225 -1.797528,-4.110061 -0.03595,-1.809385 0.539259,-4.014199 2.240918,-4.625316 0.754962,-0.275602 1.270253,-1.018529 1.042566,-1.845334 -0.20372,-0.730944 -1.078516,-1.318095 -1.845462,-1.042493 v 0 z"
     id="path20"
     style="stroke-width:1.19831" />
  <path
     class="cls-1"
     d="m 56.011565,33.021247 c -2.372736,-1.138355 -5.116961,-1.725506 -7.238044,0.239654 -1.689676,1.557749 -2.288852,4.277819 -1.29422,6.362806 0.527275,1.102407 1.557857,1.857316 2.756209,2.049039 1.198352,0.191723 2.252901,-0.107844 3.331418,-0.167758 0.826862,-0.04793 1.342154,-0.0719 1.485956,0.838788 0.119835,0.766892 0.143802,1.821368 -0.335539,2.384555 -0.575208,0.683013 -1.605791,0.922666 -2.516538,1.066459 -0.371489,0.05991 -0.910747,0.107844 -1.342154,0.08388 -0.191736,-0.01198 -0.227687,-0.02397 -0.479341,-0.09586 0.143802,0.03595 -0.0719,-0.03595 -0.09587,-0.05991 0.0719,0.05991 0.143802,0.215689 0,-0.05991 -0.946698,-1.677576 -3.535137,-0.17974 -2.588439,1.509818 1.174384,2.09697 3.978527,1.857316 5.967791,1.378009 2.444637,-0.599134 4.266132,-2.228779 4.433901,-4.841005 0.0719,-1.16232 -0.04793,-2.540329 -0.68306,-3.546874 -0.695044,-1.102407 -1.90538,-1.569732 -3.151665,-1.653611 -1.078517,-0.0719 -2.121083,0.31155 -3.187616,0.263619 -0.814879,-0.04793 -1.066533,-0.587151 -1.066533,-1.354043 0,-0.766892 0.40744,-1.73749 1.126451,-2.204814 1.018599,-0.671031 2.38472,-0.08388 3.391335,0.395428 0.730995,0.347498 1.617775,0.203706 2.049181,-0.539221 0.383473,-0.659047 0.191737,-1.701541 -0.539258,-2.049039 v 0 z"
     id="path21"
     style="stroke-width:1.19831" />
  <path
     class="cls-1"
     d="m 127.66103,40.222841 c 3.00786,0.503273 6.17151,-1.342061 6.99837,-4.349715 0.43141,-1.557749 0.012,-3.319203 -1.46199,-4.157991 -1.47397,-0.838788 -3.39133,-0.335516 -4.6496,0.778874 -2.38472,2.108953 -3.25952,5.655827 -2.68431,8.699429 0.57521,3.043602 2.82811,6.027291 5.85994,6.878062 1.78554,0.503272 3.67894,0.03595 5.15291,-1.042494 1.52191,-1.11439 2.54051,-2.696104 3.39134,-4.361697 0.37149,-0.718961 0.19173,-1.629645 -0.53926,-2.049039 -0.67108,-0.395429 -1.67769,-0.191723 -2.04918,0.53922 -0.85083,1.665594 -2.01323,3.798512 -4.0744,4.098079 -1.84546,0.275601 -3.42728,-1.473871 -4.20621,-2.947741 -0.89877,-1.713524 -0.95868,-3.810494 -0.21571,-5.595914 0.32356,-0.778874 0.83885,-1.629645 1.50993,-2.1449 0.38347,-0.287585 1.07851,-0.527239 1.15041,0.03595 0.0719,0.67103 -0.62314,1.569731 -1.17438,2.025073 -0.61116,0.491291 -1.47397,0.826806 -2.22893,0.694996 -0.75497,-0.131809 -1.61778,0.203706 -1.84547,1.042494 -0.19173,0.718961 0.23967,1.713524 1.04257,1.845333 v 0 z"
     id="path22"
     style="stroke-width:1.19831" />
  <g
     id="g24"
     transform="matrix(1.1983517,0,0,1.1982685,-25.128826,-13.771138)">
    <path
       class="cls-1"
       d="m 120.82,35.89 c 1.61,0 1.61,-2.5 0,-2.5 -1.61,0 -1.61,2.5 0,2.5 z"
       id="path23" />
    <path
       class="cls-1"
       d="m 119.57,40.32 c 0.78,6.14 1.74,12.33 2.04,18.52 0.14,2.76 0.22,6.06 -1.03,8.61 -0.51,1.04 -1.8,2.3 -3.02,1.48 -1.14,-0.77 -1.11,-2.58 -1.15,-3.78 -0.06,-1.6 -2.56,-1.61 -2.5,0 0.1,2.87 1.04,6.72 4.69,6.53 3.72,-0.2 4.93,-4.34 5.33,-7.38 0.51,-3.85 0.05,-7.73 -0.37,-11.57 -0.45,-4.14 -0.97,-8.28 -1.5,-12.41 -0.2,-1.57 -2.7,-1.59 -2.5,0 v 0 z"
       id="path24" />
  </g>
  <path
     class="cls-1"
     d="m 106.76176,34.303395 c -2.79216,1.018528 -4.17027,3.630753 -4.39795,6.470649 -0.21571,2.54033 0.45537,5.524018 2.51654,7.213577 2.06116,1.689558 5.14093,1.96516 7.14217,0 1.8215,-1.797403 2.26489,-4.805057 2.24093,-7.249525 -0.012,-2.94774 -1.22232,-6.854095 -4.72152,-7.057801 -0.80289,-0.04793 -1.49794,0.718961 -1.49794,1.497836 0,0.85077 0.68307,1.449904 1.49794,1.497835 -0.19173,0 0.29959,0.08388 0.23967,0.05991 -0.10785,-0.04793 0.33554,0.227671 0.22769,0.131809 0.32356,0.263619 0.47934,0.503273 0.67108,0.874736 0.3595,0.671031 0.53926,1.689559 0.58719,2.552312 0.0719,1.677576 -0.13182,3.70265 -0.97066,5.068676 -0.71901,1.174303 -1.9653,1.306113 -3.16365,0.575169 -1.29422,-0.80284 -1.77356,-2.612226 -1.79753,-4.110061 -0.0359,-1.809386 0.53926,-4.0142 2.24092,-4.625317 0.75496,-0.275601 1.27025,-1.018528 1.04256,-1.845333 -0.20372,-0.730944 -1.07851,-1.318096 -1.84546,-1.042494 v 0 z"
     id="path25"
     style="stroke-width:1.19831" />
  <path
     class="cls-1"
     d="m 89.757148,34.231498 c 1.485956,4.829023 2.181,9.837785 2.852077,14.834565 0.227687,1.677575 3.019846,1.270164 2.947945,-0.395429 -0.143802,-3.199377 -0.359505,-6.494615 0.119835,-9.68201 0.191736,-1.306112 0.515291,-2.779983 1.354138,-3.846441 0.251653,-0.31155 0.623142,-0.683014 1.030582,-0.742927 0.107852,-0.01198 0.575209,0.02397 0.611159,0.09586 0.311572,0.742926 0.994632,1.282147 1.845466,1.042493 0.70702,-0.191723 1.35413,-1.090424 1.04256,-1.845333 -0.73099,-1.761455 -2.600421,-2.72007 -4.481833,-2.132918 -1.929347,0.599134 -3.043814,2.432485 -3.690923,4.217905 -0.719011,1.977143 -0.862814,4.181957 -0.934715,6.278927 -0.0719,2.204814 0.02397,4.409628 0.119835,6.614442 l 2.947945,-0.395429 c -0.671076,-4.996777 -1.36612,-10.00554 -2.852076,-14.834562 -0.563226,-1.833351 -3.463237,-1.054476 -2.888028,0.790857 v 0 z"
     id="path26"
     style="stroke-width:1.19831" />
  <path
     class="cls-1"
     d="m 164.78595,33.332797 c -2.37272,-1.138355 -5.11695,-1.725507 -7.23803,0.239654 -1.68968,1.557749 -2.28885,4.277818 -1.29423,6.362806 0.52727,1.102407 1.55785,1.857316 2.7562,2.049039 1.19836,0.191723 2.25291,-0.107844 3.33143,-0.167758 0.82687,-0.04793 1.34216,-0.0719 1.48596,0.838788 0.11984,0.766892 0.1438,1.821368 -0.33554,2.384554 -0.57521,0.683013 -1.60579,0.922667 -2.51654,1.066459 -0.37149,0.05991 -0.91074,0.107844 -1.34215,0.08388 -0.19174,-0.01198 -0.22769,-0.02396 -0.47934,-0.09586 0.1438,0.03595 -0.0719,-0.03595 -0.0959,-0.05991 0.0719,0.05991 0.1438,0.215689 0,-0.05991 -0.94671,-1.677576 -3.53514,-0.17974 -2.58845,1.509818 1.1744,2.09697 3.97853,1.857316 5.9678,1.378009 2.44463,-0.599134 4.26613,-2.22878 4.43389,-4.841005 0.0719,-1.16232 -0.0479,-2.540329 -0.68305,-3.546875 -0.69505,-1.102407 -1.90539,-1.569731 -3.15166,-1.65361 -1.07853,-0.0719 -2.1211,0.31155 -3.18763,0.263619 -0.81488,-0.04793 -1.06653,-0.587152 -1.06653,-1.354044 0,-0.766891 0.40745,-1.737489 1.12645,-2.204814 1.01861,-0.67103 2.38473,-0.08388 3.39135,0.395429 0.73099,0.347498 1.61777,0.203706 2.04918,-0.539221 0.38347,-0.659047 0.19173,-1.701541 -0.53926,-2.049039 v 0 z"
     id="path27"
     style="stroke-width:1.19831" />
  <g
     id="g29"
     transform="matrix(1.1983517,0,0,1.1982685,-25.128826,-13.771138)">
    <path
       class="cls-1"
       d="m 141.44,19.94 c 0.33,10.75 0.66,21.49 0.99,32.24 0.05,1.6 2.55,1.61 2.5,0 -0.33,-10.75 -0.66,-21.49 -0.99,-32.24 -0.05,-1.6 -2.55,-1.61 -2.5,0 z"
       id="path28" />
    <path
       class="cls-1"
       d="m 140.86,40.4 c 2.51,0.22 5.03,0.06 7.5,-0.43 0.64,-0.13 1.07,-0.93 0.87,-1.54 -0.22,-0.68 -0.85,-1.01 -1.54,-0.87 -2.17,0.43 -4.49,0.55 -6.83,0.34 -0.65,-0.06 -1.28,0.62 -1.25,1.25 0.03,0.73 0.55,1.19 1.25,1.25 z"
       id="path29" />
  </g>
  <g
     id="g31"
     transform="matrix(1.1983517,0,0,1.1982685,-25.128826,-13.771138)">
    <path
       class="cls-1"
       d="m 83.02,39.73 c 0.09,11.68 0.38,23.36 0.87,35.03 0.07,1.6 2.57,1.61 2.5,0 -0.49,-11.67 -0.78,-23.35 -0.87,-35.03 -0.01,-1.61 -2.51,-1.61 -2.5,0 z"
       id="path30" />
    <path
       class="cls-1"
       d="m 85.53,43.42 c 0.65,-1.32 2.03,-3.08 3.7,-2.94 1.52,0.13 2.15,1.89 2.2,3.19 0.06,1.65 -0.18,3.82 -1.2,5.18 -0.75,0.99 -2.44,1.69 -3.12,0.28 -0.29,-0.61 -1.16,-0.77 -1.71,-0.45 -0.62,0.36 -0.74,1.1 -0.45,1.71 0.86,1.79 3.16,2.45 4.95,1.75 2.03,-0.8 3.17,-2.77 3.63,-4.83 0.47,-2.1 0.68,-4.42 -0.23,-6.43 -0.8,-1.78 -2.64,-3.1 -4.64,-2.88 -2.35,0.26 -4.29,2.1 -5.3,4.15 -0.3,0.61 -0.16,1.35 0.45,1.71 0.55,0.32 1.41,0.16 1.71,-0.45 v 0 z"
       id="path31" />
  </g>
</svg>
