<?xml version="1.0" encoding="UTF-8" standalone="no"?>
<svg
   id="ma_typo"
   data-name="ma typo"
   viewBox="0 0 140.00001 84"
   version="1.1"
   sodipodi:docname="menu_contact.svg"
   width="140"
   height="84"
   inkscape:version="1.4.2 (ebf0e940d0, 2025-05-08)"
   xmlns:inkscape="http://www.inkscape.org/namespaces/inkscape"
   xmlns:sodipodi="http://sodipodi.sourceforge.net/DTD/sodipodi-0.dtd"
   xmlns="http://www.w3.org/2000/svg"
   xmlns:svg="http://www.w3.org/2000/svg">
  <sodipodi:namedview
     id="namedview19"
     pagecolor="#080808"
     bordercolor="#000000"
     borderopacity="0.25"
     inkscape:showpageshadow="2"
     inkscape:pageopacity="0.0"
     inkscape:pagecheckerboard="0"
     inkscape:deskcolor="#d1d1d1"
     inkscape:zoom="4.6674121"
     inkscape:cx="30.20946"
     inkscape:cy="49.277843"
     inkscape:window-width="1920"
     inkscape:window-height="1011"
     inkscape:window-x="0"
     inkscape:window-y="0"
     inkscape:window-maximized="1"
     inkscape:current-layer="ma_typo"
     showguides="true">
    <sodipodi:guide
       position="-70.525568,33.685156"
       orientation="0,-1"
       id="guide1"
       inkscape:locked="false" />
    <sodipodi:guide
       position="-5.8362504,51.860975"
       orientation="0,-1"
       id="guide2"
       inkscape:locked="false" />
  </sodipodi:namedview>
  <defs
     id="defs1">
    <style
       id="style1">
      .cls-1 {
        fill: #ffffff;
      }
    </style>
  </defs>
  <path
     class="cls-1"
     d="m 89.013463,33.37144 c -2.84049,-1.042845 -5.7306,0.604377 -7.35551,2.773021 -0.80625,1.078397 -1.37683,2.322701 -1.872985,3.555155 -0.496156,1.232453 -0.880676,2.654515 -0.880676,4.029175 0,2.725619 1.885391,5.806753 5.122801,5.415686 2.72886,-0.331815 4.93675,-2.725619 6.27637,-4.858712 1.56289,-2.500458 2.30712,-5.391984 2.45597,-8.28351 0.0868,-1.647222 -2.72885,-2.050139 -3.05136,-0.391067 -0.93029,4.82316 -0.48375,9.824077 1.45126,14.374675 0.3101,0.734732 1.02952,1.268006 1.9102,1.030995 0.73182,-0.189608 1.40163,-1.078397 1.07913,-1.824979 -1.72413,-4.052876 -2.29471,-8.484969 -1.45125,-12.798557 -1.01712,-0.130356 -2.03424,-0.260711 -3.05135,-0.391067 -0.12404,2.334552 -0.73183,4.669103 -1.97222,6.695541 -0.6202,1.007294 -1.37683,1.907933 -2.30713,2.654516 -0.62019,0.497722 -1.73654,1.268005 -2.50558,0.651778 -1.81097,-1.445763 -0.54577,-4.633551 0.22327,-6.257072 0.88067,-1.848681 2.5676,-4.432093 5.08559,-3.507753 0.78145,0.284413 1.69934,-0.319964 1.9102,-1.030995 0.23568,-0.841386 -0.29769,-1.528716 -1.07914,-1.824979 v 0 z"
     id="path9"
     style="stroke-width:1.2124" />
  <path
     class="cls-1"
     d="m 107.86737,37.0451 c -0.71943,-2.429355 -2.49319,-4.716505 -5.33368,-4.870562 -3.026547,-0.165907 -4.626647,2.51231 -5.395687,4.917964 -1.36443,4.206933 -0.68221,11.637207 4.899537,12.6208 2.90251,0.509572 5.70579,-0.948042 7.11983,-3.377397 0.9675,-1.670923 -1.71174,-3.164088 -2.67924,-1.493165 -0.86827,1.493165 -2.66684,2.52416 -4.453,1.801278 -1.88539,-0.758433 -2.282307,-3.377397 -2.369137,-5.095722 -0.0992,-1.955335 0.26048,-4.432093 1.649717,-5.960809 0.57058,-0.628077 1.47606,-0.545124 2.14587,-0.08295 0.78145,0.545124 1.16597,1.469464 1.42645,2.334552 0.54577,1.83683 3.53511,1.054696 2.98934,-0.782134 v 0 z"
     id="path10"
     style="stroke-width:1.2124" />
  <path
     class="cls-1"
     d="m 53.910457,34.165425 c 0.744234,4.574299 1.40164,9.160449 1.947411,13.758449 0.09923,0.793984 0.645002,1.481314 1.550486,1.481314 0.905484,0 1.50087,-0.675479 1.550486,-1.481314 0.136443,-2.441206 0.186058,-4.894263 0.483752,-7.323619 0.136442,-1.066546 0.359712,-2.133093 0.694617,-3.164088 0.272886,-0.817685 0.632599,-1.896082 1.277601,-2.500458 -0.186059,0.165907 -0.210866,-0.154057 0.06202,0.05925 0.07442,0.05925 0.161251,0.106655 0.235674,0.189608 0.322501,0.331815 0.471348,0.805835 0.607791,1.232454 0.347308,1.125799 0.396924,2.310851 0.471347,3.484052 0.173655,2.583412 0.272886,5.166824 0.297694,7.750237 0.0124,1.907933 3.113376,1.907933 3.100972,0 -0.02481,-2.453057 -0.111635,-4.894263 -0.272886,-7.335469 -0.148847,-2.192346 -0.148847,-4.799459 -1.550486,-6.65999 -0.707022,-0.948041 -1.748948,-1.635371 -3.014145,-1.647222 -1.33962,-0.01185 -2.319527,0.817686 -2.964529,1.860531 -1.165965,1.907933 -1.699333,4.076578 -1.997026,6.245222 -0.347309,2.583412 -0.409328,5.214227 -0.545771,7.80949 h 3.100972 c -0.582984,-4.85871 -1.265198,-9.717421 -2.059046,-14.552432 -0.124039,-0.793984 -1.165966,-1.232453 -1.910199,-1.030994 -0.880676,0.23701 -1.215581,1.030994 -1.079138,1.824979 v 0 z"
     id="path11"
     style="stroke-width:1.2124" />
  <path
     class="cls-1"
     d="m 43.689654,33.940265 c -2.890106,1.007294 -4.316553,3.590706 -4.552227,6.399279 -0.22327,2.512309 0.471348,5.463087 2.604816,7.13401 2.145873,1.670923 5.321268,1.943485 7.392718,0 1.885391,-1.777577 2.344334,-4.752057 2.319527,-7.169562 -0.0124,-2.915227 -1.265197,-6.778495 -4.887132,-6.979954 -0.831061,-0.0474 -1.550486,0.711031 -1.550486,1.481315 0,0.841386 0.707021,1.433912 1.550486,1.481314 -0.198462,0 0.310097,0.08295 0.248078,0.05925 -0.111635,-0.0474 0.347308,0.22516 0.235673,0.130356 0.334905,0.260711 0.496156,0.497721 0.694618,0.865087 0.372117,0.663629 0.558175,1.670923 0.607791,2.52416 0.07442,1.659072 -0.136443,3.661809 -1.004715,5.012768 -0.744234,1.161351 -2.034238,1.291706 -3.274627,0.568825 -1.33962,-0.793985 -1.835775,-2.583412 -1.860583,-4.064727 -0.03721,-1.789428 0.558175,-3.969923 2.319527,-4.574299 0.781445,-0.272562 1.314812,-1.007294 1.079138,-1.824979 -0.210866,-0.722882 -1.11635,-1.303557 -1.910198,-1.030995 v 0 z"
     id="path12"
     style="stroke-width:1.2124" />
  <g
     id="g14"
     transform="matrix(1.2403888,0,0,1.1850516,-15.27843,-12.122689)">
    <path
       class="cls-1"
       d="m 68.8,18.69 c 0.33,10.75 0.66,21.49 0.99,32.24 0.05,1.6 2.55,1.61 2.5,0 -0.33,-10.75 -0.66,-21.49 -0.99,-32.24 -0.05,-1.6 -2.55,-1.61 -2.5,0 z"
       id="path13" />
    <path
       class="cls-1"
       d="m 68.22,39.15 c 2.51,0.22 5.03,0.06 7.5,-0.43 0.64,-0.13 1.07,-0.93 0.87,-1.54 -0.22,-0.68 -0.85,-1.01 -1.54,-0.87 -2.17,0.43 -4.49,0.55 -6.83,0.34 -0.65,-0.06 -1.28,0.62 -1.25,1.25 0.03,0.73 0.55,1.19 1.25,1.25 z"
       id="path14" />
  </g>
  <g
     id="g16"
     transform="matrix(1.2403888,0,0,1.1850516,-15.27843,-12.122689)">
    <path
       class="cls-1"
       d="m 104.72,18.69 c 0.33,10.75 0.66,21.49 0.99,32.24 0.05,1.6 2.55,1.61 2.5,0 -0.33,-10.75 -0.66,-21.49 -0.99,-32.24 -0.05,-1.6 -2.55,-1.61 -2.5,0 z"
       id="path15" />
    <path
       class="cls-1"
       d="m 104.14,39.15 c 2.51,0.22 5.03,0.06 7.5,-0.43 0.64,-0.13 1.07,-0.93 0.87,-1.54 -0.22,-0.68 -0.85,-1.01 -1.54,-0.87 -2.17,0.43 -4.49,0.55 -6.83,0.34 -0.65,-0.06 -1.28,0.62 -1.25,1.25 0.03,0.73 0.55,1.19 1.25,1.25 z"
       id="path16" />
  </g>
  <path
     class="cls-1"
     d="m 31.533843,17.847265 c -0.297693,-2.97448 -3.274626,-9.6937217 -7.454736,-6.553335 -1.686929,1.268005 -2.505586,3.602557 -2.976933,5.52234 -0.582983,2.381954 -0.880676,4.870562 -1.066735,7.311768 -0.38452,5.04832 -0.02481,10.155892 1.004715,15.121258 0.818657,3.958073 1.885391,9.504114 6.574061,10.878774 2.2327,0.651778 4.577035,-0.189609 6.226752,-1.659073 1.997026,-1.777577 2.778471,-4.38469 3.460684,-6.814046 0.50856,-1.84868 -2.480777,-2.630815 -2.989337,-0.782134 -0.533367,1.919783 -1.05433,4.13583 -2.666836,5.51049 -1.612505,1.37466 -3.485492,1.315407 -4.874728,-0.21331 -1.451254,-1.61167 -1.897794,-4.041025 -2.381546,-6.055613 -0.533367,-2.227897 -0.930292,-4.491346 -1.153562,-6.766645 -0.44654,-4.491345 -0.334905,-9.065644 0.409329,-13.521438 0.310097,-1.83683 0.657406,-3.804016 1.711736,-5.403835 0.272886,-0.414768 0.483752,-0.876938 0.979907,-0.758433 0.434136,0.106655 0.756638,0.711031 0.979908,1.042845 0.632598,0.959892 0.992311,2.038289 1.116349,3.164088 0.186059,1.884232 3.287031,1.896082 3.100972,0 v 0 z"
     id="path17"
     style="stroke-width:1.2124" />
</svg>
