<?xml version="1.0" encoding="UTF-8" standalone="no"?>
<svg
   id="ma_typo"
   data-name="ma typo"
   viewBox="0 0 180.00001 84"
   version="1.1"
   sodipodi:docname="menu_troupe.svg"
   width="180"
   height="84"
   inkscape:version="1.4.2 (ebf0e940d0, 2025-05-08)"
   xmlns:inkscape="http://www.inkscape.org/namespaces/inkscape"
   xmlns:sodipodi="http://sodipodi.sourceforge.net/DTD/sodipodi-0.dtd"
   xmlns="http://www.w3.org/2000/svg"
   xmlns:svg="http://www.w3.org/2000/svg">
  <sodipodi:namedview
     id="namedview36"
     pagecolor="#000000"
     bordercolor="#000000"
     borderopacity="0.25"
     inkscape:showpageshadow="2"
     inkscape:pageopacity="0.0"
     inkscape:pagecheckerboard="0"
     inkscape:deskcolor="#d1d1d1"
     inkscape:zoom="4.144943"
     inkscape:cx="73.101126"
     inkscape:cy="56.454335"
     inkscape:window-width="1920"
     inkscape:window-height="1011"
     inkscape:window-x="0"
     inkscape:window-y="0"
     inkscape:window-maximized="1"
     inkscape:current-layer="ma_typo"
     showguides="true">
    <sodipodi:guide
       position="-39.748649,34.186245"
       orientation="0,-1"
       id="guide1"
       inkscape:locked="false" />
    <sodipodi:guide
       position="-12.10292,51.771529"
       orientation="0,-1"
       id="guide2"
       inkscape:locked="false" />
  </sodipodi:namedview>
  <defs
     id="defs1">
    <style
       id="style1">
      .cls-1 {
        fill: #ffffff;
      }
    </style>
  </defs>
  <path
     class="cls-1"
     d="m 119.90586,33.353476 c -2.6355,-1.012765 -5.31704,0.586946 -6.82468,2.69304 -0.74805,1.047295 -1.27746,2.25571 -1.7378,3.452616 -0.46037,1.196906 -0.81712,2.577953 -0.81712,3.912964 0,2.647006 1.74932,5.639272 4.75308,5.259483 2.53192,-0.322243 4.58048,-2.647003 5.82343,-4.718573 1.45009,-2.428339 2.14061,-5.236468 2.27872,-8.044594 0.0806,-1.599712 -2.53192,-1.991008 -2.83115,-0.379787 -0.86314,4.684048 -0.44884,9.540728 1.34651,13.960073 0.28773,0.71354 0.95523,1.231434 1.77235,1.00126 0.67901,-0.184141 1.30049,-1.047294 1.00126,-1.772343 -1.59971,-3.935982 -2.12912,-8.240243 -1.34652,-12.429415 -0.94371,-0.126597 -1.88743,-0.253192 -2.83114,-0.379788 -0.11508,2.267218 -0.67901,4.534434 -1.82988,6.502426 -0.57545,0.97824 -1.27748,1.852904 -2.14063,2.577952 -0.57543,0.483366 -1.61122,1.231432 -2.32476,0.632979 -1.68026,-1.404062 -0.50638,-4.499908 0.20717,-6.076601 0.81711,-1.795361 2.38229,-4.304262 4.71857,-3.406581 0.72504,0.276209 1.57668,-0.310736 1.77234,-1.00126 0.21867,-0.817119 -0.27621,-1.484622 -1.00126,-1.772343 v 0 z"
     id="path5"
     style="stroke-width:1.15087" />
  <path
     class="cls-1"
     d="m 60.014494,36.921179 c -0.667506,-2.359287 -2.313252,-4.580468 -4.948749,-4.730083 -2.808127,-0.161121 -4.292752,2.439848 -5.006292,4.776118 -1.265959,4.085594 -0.63298,11.301561 4.545943,12.256785 2.69304,0.494875 5.294011,-0.920698 6.606005,-3.279985 0.897679,-1.622728 -1.588203,-3.072827 -2.485883,-1.450099 -0.805611,1.450099 -2.474374,2.451359 -4.131631,1.749326 -1.749324,-0.736558 -2.117604,-3.279985 -2.198164,-4.948749 -0.09208,-1.898937 0.241683,-4.30426 1.530659,-5.788885 0.529401,-0.609961 1.369538,-0.529401 1.991008,-0.08056 0.72505,0.529402 1.08182,1.42708 1.323503,2.267217 0.506384,1.783851 3.279983,1.024274 2.773601,-0.759576 v 0 z"
     id="path6"
     style="stroke-width:1.15087" />
  <path
     class="cls-1"
     d="m 165.83715,40.742075 c 2.88869,0.483364 5.92699,-1.288978 6.72109,-4.177665 0.4143,-1.496134 0.0116,-3.187915 -1.40408,-3.993526 -1.41557,-0.805611 -3.25696,-0.322244 -4.46538,0.748066 -2.29023,2.025534 -3.13036,5.432114 -2.57794,8.35533 0.55241,2.888687 2.71606,5.788884 5.62775,6.606003 1.7148,0.483367 3.53318,0.03452 4.94875,-1.001258 1.46161,-1.07031 2.43987,-2.589462 3.25699,-4.189173 0.35675,-0.690524 0.18412,-1.565185 -0.5179,-1.967991 -0.64449,-0.379786 -1.61123,-0.18414 -1.968,0.517893 -0.81712,1.599711 -1.93346,3.648264 -3.91296,3.935981 -1.77233,0.264699 -3.29149,-1.415573 -4.03956,-2.831145 -0.86316,-1.645746 -0.92069,-3.659771 -0.20716,-5.374571 0.31074,-0.748067 0.8056,-1.565186 1.45009,-2.060061 0.3683,-0.276207 1.0358,-0.506382 1.10486,0.03453 0.069,0.64449 -0.59846,1.507643 -1.12786,1.944974 -0.58694,0.471857 -1.41557,0.794103 -2.14062,0.667506 -0.72507,-0.126596 -1.55368,0.195649 -1.77235,1.001258 -0.18414,0.690524 0.23017,1.645747 1.00127,1.772342 v 0 z"
     id="path7"
     style="stroke-width:1.15087" />
  <g
     id="g9"
     transform="matrix(1.1508718,0,0,1.1508718,-33.286679,-11.334874)">
    <path
       class="cls-1"
       d="m 166.29,39.75 c 0.12,3.83 0.25,7.66 0.37,11.48 0.05,1.6 2.55,1.61 2.5,0 -0.12,-3.83 -0.25,-7.66 -0.37,-11.48 -0.05,-1.6 -2.55,-1.61 -2.5,0 z"
       id="path8" />
    <path
       class="cls-1"
       d="m 167.69,35.19 c 1.61,0 1.61,-2.5 0,-2.5 -1.61,0 -1.61,2.5 0,2.5 z"
       id="path9" />
  </g>
  <path
     class="cls-1"
     d="m 76.610064,33.341969 c 0.506383,5.098362 1.012768,10.208232 1.507643,15.306594 0.08056,0.771083 0.609962,1.438588 1.438588,1.438588 0.748067,0 1.473118,-0.655995 1.438591,-1.438588 -0.126597,-2.370796 -0.241683,-4.741592 -0.06904,-7.112388 0.09208,-1.173889 0.264699,-2.324762 0.552417,-3.464125 0.149614,-0.586942 0.356772,-1.576693 0.932207,-1.933463 1.404062,-0.897681 2.037042,2.716056 2.186656,3.406581 0.494874,2.324759 0.667505,4.707065 0.586944,7.077859 h 2.877179 c 0,-2.485882 0,-4.971765 0,-7.457648 0,-0.943716 -0.08056,-2.002516 0.310736,-2.888687 0.207158,-0.483367 0.794101,-1.127854 1.335012,-0.828629 0.460349,0.253191 0.655996,1.116347 0.759574,1.634238 0.218666,0.978242 0.287718,2.002518 0.391297,3.003776 0.27621,2.5089 0.483367,5.029309 0.63298,7.549718 0.115087,1.841395 2.992266,1.852903 2.877179,0 -0.195647,-3.130371 -0.471857,-6.249232 -0.840137,-9.356587 -0.253192,-2.152131 -0.725049,-5.02931 -3.22244,-5.673798 -1.358029,-0.345262 -2.739076,0.172631 -3.682789,1.173889 -0.943716,1.001258 -1.300486,2.405323 -1.404064,3.774861 -0.218666,2.992266 -0.03453,6.065093 -0.04603,9.068867 0,1.852906 2.819634,1.852906 2.877179,0 0.103581,-3.003774 -0.207158,-6.053584 -0.955224,-8.965289 -0.310736,-1.231433 -0.771084,-2.497393 -1.726308,-3.395072 -0.955224,-0.897682 -2.428339,-1.392555 -3.740333,-0.932208 -2.474374,0.874663 -3.06132,3.970508 -3.383563,6.249236 -0.425823,3.015283 -0.310734,6.042075 -0.149613,9.080378 h 2.877175 c -0.506382,-5.098363 -1.012765,-10.208234 -1.50764,-15.306596 -0.08056,-0.771084 -0.609963,-1.438588 -1.438591,-1.438588 -0.71354,0 -1.519151,0.655996 -1.438588,1.438588 v 0 z"
     id="path10"
     style="stroke-width:1.15087" />
  <path
     class="cls-1"
     d="m 143.55627,34.124561 c 0.69053,4.442364 1.30049,8.896239 1.80687,13.361621 0.0921,0.771085 0.59845,1.438589 1.43859,1.438589 0.84013,0 1.39255,-0.655996 1.43859,-1.438589 0.12659,-2.370796 0.17263,-4.753099 0.44885,-7.112388 0.12659,-1.035784 0.33374,-2.071568 0.64449,-3.072828 0.25318,-0.794101 0.58693,-1.841393 1.18539,-2.428338 -0.17264,0.161123 -0.19564,-0.149613 0.0575,0.05755 0.069,0.05755 0.14961,0.103581 0.21867,0.184139 0.29923,0.322244 0.43733,0.782593 0.56393,1.196907 0.32223,1.093327 0.36827,2.2442 0.43732,3.383563 0.16113,2.5089 0.25318,5.017801 0.27621,7.5267 0.0116,1.852905 2.8887,1.852905 2.87718,0 -0.023,-2.382304 -0.10357,-4.753101 -0.2532,-7.123897 -0.1381,-2.129112 -0.1381,-4.661029 -1.43859,-6.467898 -0.65598,-0.920697 -1.62272,-1.588203 -2.79661,-1.599711 -1.24295,-0.01152 -2.15214,0.7941 -2.7506,1.806869 -1.08179,1.852902 -1.57668,3.958997 -1.85289,6.065093 -0.32224,2.508902 -0.37979,5.063836 -0.50638,7.584245 h 2.87717 c -0.5409,-4.718573 -1.17387,-9.437147 -1.91044,-14.132706 -0.11509,-0.771083 -1.08181,-1.196906 -1.77234,-1.001257 -0.81712,0.230174 -1.12786,1.001257 -1.00126,1.772342 v 0 z"
     id="path11"
     style="stroke-width:1.15087" />
  <path
     class="cls-1"
     d="m 67.115372,33.905896 c -2.68153,0.978239 -4.005034,3.487141 -4.223699,6.214707 -0.207157,2.439848 0.43733,5.305519 2.41683,6.928247 1.991008,1.622729 4.937241,1.887431 6.859197,0 1.749325,-1.726306 2.175146,-4.614996 2.152128,-6.962773 -0.01152,-2.831145 -1.173888,-6.582987 -4.534433,-6.778634 -0.771083,-0.04603 -1.43859,0.690522 -1.43859,1.438588 0,0.817119 0.655996,1.392556 1.43859,1.438591 -0.184141,0 0.287718,0.08056 0.230174,0.05755 -0.103582,-0.04603 0.322244,0.218665 0.218666,0.126595 0.310736,0.253191 0.460348,0.483366 0.644487,0.840137 0.345262,0.644488 0.517893,1.622729 0.563927,2.451356 0.06904,1.611222 -0.126594,3.556193 -0.932205,4.868187 -0.690522,1.127855 -1.887429,1.254452 -3.038302,0.552419 -1.242942,-0.771085 -1.70329,-2.5089 -1.726306,-3.947489 -0.03453,-1.737816 0.51789,-3.855421 2.152129,-4.442367 0.72505,-0.264699 1.219925,-0.978239 1.00126,-1.772342 -0.195649,-0.70203 -1.035786,-1.265957 -1.772343,-1.001258 v 0 z"
     id="path12"
     style="stroke-width:1.15087" />
  <g
     id="g14"
     transform="matrix(1.1508718,0,0,1.1508718,-33.286679,-11.334874)">
    <path
       class="cls-1"
       d="m 113.07,39.28 c 0.09,11.68 0.38,23.36 0.87,35.03 0.07,1.6 2.57,1.61 2.5,0 -0.49,-11.67 -0.78,-23.35 -0.87,-35.03 -0.01,-1.61 -2.51,-1.61 -2.5,0 z"
       id="path13" />
    <path
       class="cls-1"
       d="m 115.58,42.96 c 0.65,-1.32 2.03,-3.08 3.7,-2.94 1.52,0.13 2.15,1.89 2.2,3.19 0.06,1.65 -0.18,3.82 -1.2,5.18 -0.75,0.99 -2.44,1.69 -3.12,0.28 -0.29,-0.61 -1.16,-0.77 -1.71,-0.45 -0.62,0.36 -0.74,1.1 -0.45,1.71 0.86,1.79 3.16,2.45 4.95,1.75 2.03,-0.8 3.17,-2.77 3.63,-4.83 0.47,-2.1 0.68,-4.42 -0.23,-6.43 -0.8,-1.78 -2.64,-3.1 -4.64,-2.88 -2.35,0.26 -4.29,2.1 -5.3,4.15 -0.3,0.61 -0.16,1.35 0.45,1.71 0.55,0.32 1.41,0.16 1.71,-0.45 v 0 z"
       id="path14" />
  </g>
  <g
     id="g16"
     transform="matrix(1.1508718,0,0,1.1508718,-33.286679,-11.334874)">
    <path
       class="cls-1"
       d="m 147.82,39.29 c 0.31,6.84 0.62,13.69 0.3,20.53 -0.13,2.91 -0.13,6.34 -1.6,8.95 -0.69,1.22 -1.8,1.89 -3.2,1.34 -1.22,-0.48 -2.12,-1.68 -2.25,-2.98 -0.16,-1.58 -2.66,-1.6 -2.5,0 0.32,3.16 3.01,6.06 6.39,5.64 3.55,-0.45 4.75,-4.57 5.2,-7.56 0.62,-4.13 0.62,-8.39 0.59,-12.56 -0.03,-4.46 -0.23,-8.91 -0.43,-13.36 -0.07,-1.6 -2.57,-1.61 -2.5,0 z"
       id="path15" />
    <path
       class="cls-1"
       d="m 150,42.26 c -0.46,-1.13 -0.94,-2.29 -1.9,-3.09 -0.96,-0.8 -2.05,-1.15 -3.25,-1.27 -1.2,-0.12 -2.59,0.06 -3.62,0.76 -0.89,0.6 -1.48,1.47 -1.86,2.46 -0.78,2 -0.63,4.52 0.11,6.51 0.82,2.19 2.55,4.12 4.93,4.57 2.51,0.47 5.37,-1.03 5.82,-3.69 0.11,-0.66 -0.18,-1.35 -0.87,-1.54 -0.6,-0.16 -1.42,0.2 -1.54,0.87 -0.21,1.26 -1.37,2.07 -2.63,1.96 -1.46,-0.14 -2.6,-1.3 -3.19,-2.57 -0.96,-2.09 -1.25,-6.7 1.91,-6.85 0.8,-0.04 1.62,0.07 2.31,0.5 0.69,0.43 1.07,1.29 1.38,2.05 0.25,0.62 0.83,1.07 1.54,0.87 0.59,-0.16 1.13,-0.91 0.87,-1.54 v 0 z"
       id="path16" />
  </g>
  <path
     class="cls-1"
     d="m 28.64173,33.31895 c -2.635496,-1.012765 -5.317027,0.586946 -6.824671,2.69304 -0.748066,1.047295 -1.277468,2.25571 -1.737816,3.452617 -0.460349,1.196905 -0.817119,2.577952 -0.817119,3.912963 0,2.647006 1.749326,5.639271 4.753101,5.259483 2.531919,-0.322244 4.58047,-2.647004 5.823412,-4.718573 1.450099,-2.428339 2.140621,-5.236468 2.278725,-8.044594 0.08056,-1.599712 -2.531919,-1.991008 -2.831144,-0.379787 -0.863153,4.684048 -0.448841,9.540726 1.34652,13.960073 0.287717,0.71354 0.955223,1.231433 1.772342,1.00126 0.679014,-0.184141 1.300486,-1.047294 1.001258,-1.772343 -1.599712,-3.935981 -2.129113,-8.240243 -1.34652,-12.429415 l -2.831144,-0.379788 c -0.115087,2.267216 -0.679015,4.534434 -1.829886,6.502426 -0.575435,0.97824 -1.277467,1.852903 -2.140623,2.577952 -0.575435,0.483366 -1.611219,1.231432 -2.324759,0.632979 -1.680274,-1.404062 -0.506383,-4.499909 0.207158,-6.076602 0.817118,-1.79536 2.382303,-4.304262 4.718573,-3.40658 0.725048,0.276208 1.576693,-0.310736 1.772343,-1.00126 0.218665,-0.817119 -0.27621,-1.484622 -1.001258,-1.772343 v 0 z"
     id="path22"
     style="stroke-width:1.15087" />
  <g
     id="g27"
     transform="matrix(1.1508718,0,0,1.1508718,-33.286679,-11.334874)">
    <path
       class="cls-1"
       d="m 31.89,19.57 c 0.57,10.85 1.02,21.7 1.35,32.56 0.05,1.61 2.55,1.61 2.5,0 -0.33,-10.86 -0.78,-21.71 -1.35,-32.56 -0.08,-1.6 -2.59,-1.61 -2.5,0 z"
       id="path26" />
    <path
       class="cls-1"
       d="m 36.13,52.84 c 2.29,-0.33 4.85,-0.58 7.27,-0.72 0.65,-0.04 1.28,-0.55 1.25,-1.25 -0.03,-0.65 -0.55,-1.29 -1.25,-1.25 -2.66,0.15 -5.3,0.43 -7.94,0.8 -0.65,0.09 -1.06,0.95 -0.87,1.54 0.23,0.71 0.84,0.97 1.54,0.87 v 0 z"
       id="path27" />
  </g>
</svg>
